<mxfile host="app.diagrams.net" modified="2022-12-13T16:52:12.799Z" agent="5.0 (X11; Linux x86_64) AppleWebKit/537.36 (KHTML, like Gecko) Chrome/108.0.0.0 Safari/537.36" version="20.6.2" etag="6D22IKwRkFT6e-b3YTn4" type="github">
  <diagram id="sUbAW26K397ALoxW2nmZ" name="Page-1">
    <mxGraphModel dx="2062" dy="1128" grid="1" gridSize="10" guides="1" tooltips="1" connect="1" arrows="1" fold="1" page="1" pageScale="1" pageWidth="827" pageHeight="1169" math="0" shadow="0">
      <root>
        <mxCell id="0" />
        <mxCell id="1" parent="0" />
        <mxCell id="AT9GLEzm2WUixaGN26FS-1" value="Client" style="shape=umlActor;verticalLabelPosition=bottom;verticalAlign=top;html=1;outlineConnect=0;" vertex="1" parent="1">
          <mxGeometry x="60" y="300" width="30" height="60" as="geometry" />
        </mxCell>
        <mxCell id="AT9GLEzm2WUixaGN26FS-2" value="expressFood" style="swimlane;whiteSpace=wrap;html=1;" vertex="1" parent="1">
          <mxGeometry x="160" y="40" width="490" height="760" as="geometry" />
        </mxCell>
        <mxCell id="AT9GLEzm2WUixaGN26FS-3" value="se connecter" style="ellipse;whiteSpace=wrap;html=1;" vertex="1" parent="AT9GLEzm2WUixaGN26FS-2">
          <mxGeometry x="50" y="80" width="140" height="70" as="geometry" />
        </mxCell>
        <mxCell id="AT9GLEzm2WUixaGN26FS-8" value="&amp;lt;&amp;lt;extends&amp;gt;&amp;gt;" style="edgeStyle=orthogonalEdgeStyle;rounded=0;orthogonalLoop=1;jettySize=auto;html=1;exitX=0.5;exitY=1;exitDx=0;exitDy=0;dashed=1;" edge="1" parent="AT9GLEzm2WUixaGN26FS-2" source="AT9GLEzm2WUixaGN26FS-4" target="AT9GLEzm2WUixaGN26FS-5">
          <mxGeometry relative="1" as="geometry" />
        </mxCell>
        <mxCell id="AT9GLEzm2WUixaGN26FS-11" value="&amp;lt;&amp;lt;extends&amp;gt;&amp;gt;" style="edgeStyle=none;rounded=0;orthogonalLoop=1;jettySize=auto;html=1;exitX=1;exitY=1;exitDx=0;exitDy=0;dashed=1;" edge="1" parent="AT9GLEzm2WUixaGN26FS-2" source="AT9GLEzm2WUixaGN26FS-4" target="AT9GLEzm2WUixaGN26FS-9">
          <mxGeometry relative="1" as="geometry" />
        </mxCell>
        <mxCell id="AT9GLEzm2WUixaGN26FS-4" value="CrÃ©er une commande" style="ellipse;whiteSpace=wrap;html=1;" vertex="1" parent="AT9GLEzm2WUixaGN26FS-2">
          <mxGeometry x="50" y="270" width="140" height="70" as="geometry" />
        </mxCell>
        <mxCell id="AT9GLEzm2WUixaGN26FS-5" value="Changer d&#39;adresse de livraison" style="ellipse;whiteSpace=wrap;html=1;" vertex="1" parent="AT9GLEzm2WUixaGN26FS-2">
          <mxGeometry x="50" y="460" width="140" height="70" as="geometry" />
        </mxCell>
        <mxCell id="AT9GLEzm2WUixaGN26FS-7" value="&amp;lt;&amp;lt;includes&amp;gt;&amp;gt;" style="endArrow=classic;html=1;rounded=0;dashed=1;" edge="1" parent="AT9GLEzm2WUixaGN26FS-2" source="AT9GLEzm2WUixaGN26FS-3" target="AT9GLEzm2WUixaGN26FS-4">
          <mxGeometry width="50" height="50" relative="1" as="geometry">
            <mxPoint x="240" y="200" as="sourcePoint" />
            <mxPoint x="290" y="150" as="targetPoint" />
          </mxGeometry>
        </mxCell>
        <mxCell id="AT9GLEzm2WUixaGN26FS-9" value="reprendre une commande en cours" style="ellipse;whiteSpace=wrap;html=1;" vertex="1" parent="AT9GLEzm2WUixaGN26FS-2">
          <mxGeometry x="240" y="460" width="140" height="70" as="geometry" />
        </mxCell>
        <mxCell id="AT9GLEzm2WUixaGN26FS-6" value="" style="endArrow=classic;html=1;rounded=0;exitX=1;exitY=0.3333333333333333;exitDx=0;exitDy=0;exitPerimeter=0;entryX=0;entryY=0.5;entryDx=0;entryDy=0;" edge="1" parent="1" source="AT9GLEzm2WUixaGN26FS-1" target="AT9GLEzm2WUixaGN26FS-4">
          <mxGeometry width="50" height="50" relative="1" as="geometry">
            <mxPoint x="70" y="260" as="sourcePoint" />
            <mxPoint x="120" y="210" as="targetPoint" />
          </mxGeometry>
        </mxCell>
      </root>
    </mxGraphModel>
  </diagram>
</mxfile>
